<svg width="20" height="20" viewBox="0 0 20 20" fill="none" xmlns="http://www.w3.org/2000/svg">
    <path d="M3.625 19.1667C3.44444 19.1667 3.29514 19.1076 3.17708 18.9896C3.05903 18.8715 3 18.7222 3 18.5417C3 18.3611 3.05903 18.2118 3.17708 18.0938C3.29514 17.9757 3.44444 17.9167 3.625 17.9167H16.375C16.5556 17.9167 16.7049 17.9757 16.8229 18.0938C16.941 18.2118 17 18.3611 17 18.5417C17 18.7222 16.941 18.8715 16.8229 18.9896C16.7049 19.1076 16.5556 19.1667 16.375 19.1667H3.625ZM3.625 2.08333C3.44444 2.08333 3.29514 2.02431 3.17708 1.90625C3.05903 1.7882 3 1.63889 3 1.45833C3 1.27778 3.05903 1.12847 3.17708 1.01042C3.29514 0.892362 3.44444 0.833334 3.625 0.833334H16.375C16.5556 0.833334 16.7049 0.892362 16.8229 1.01042C16.941 1.12847 17 1.27778 17 1.45833C17 1.63889 16.941 1.7882 16.8229 1.90625C16.7049 2.02431 16.5556 2.08333 16.375 2.08333H3.625ZM10 10.75C10.6944 10.75 11.2778 10.5139 11.75 10.0417C12.2222 9.56945 12.4583 8.98611 12.4583 8.29167C12.4583 7.59722 12.2222 7.01389 11.75 6.54167C11.2778 6.06945 10.6944 5.83333 10 5.83333C9.30556 5.83333 8.72222 6.06945 8.25 6.54167C7.77778 7.01389 7.54167 7.59722 7.54167 8.29167C7.54167 8.98611 7.77778 9.56945 8.25 10.0417C8.72222 10.5139 9.30556 10.75 10 10.75ZM2.75 16.6667C2.41667 16.6667 2.125 16.5417 1.875 16.2917C1.625 16.0417 1.5 15.75 1.5 15.4167V4.58333C1.5 4.22222 1.625 3.92361 1.875 3.6875C2.125 3.45139 2.41667 3.33333 2.75 3.33333H17.25C17.5833 3.33333 17.875 3.45833 18.125 3.70833C18.375 3.95833 18.5 4.25 18.5 4.58333V15.4167C18.5 15.75 18.375 16.0417 18.125 16.2917C17.875 16.5417 17.5833 16.6667 17.25 16.6667H2.75ZM4.58333 15.4167H15.4167C14.7361 14.5417 13.8993 13.8854 12.9063 13.4479C11.9132 13.0104 10.9444 12.7917 10 12.7917C9.04167 12.7917 8.07639 13.0104 7.10417 13.4479C6.13194 13.8854 5.29167 14.5417 4.58333 15.4167Z" fill="#384764"/>
    </svg>
    