<svg width="20" height="20" viewBox="0 0 20 20" fill="none" xmlns="http://www.w3.org/2000/svg">
    <path d="M10.625 7.5V3.125C10.625 2.94444 10.684 2.79514 10.8021 2.67708C10.9201 2.55903 11.0694 2.5 11.25 2.5H16.875C17.0556 2.5 17.2049 2.55903 17.3229 2.67708C17.441 2.79514 17.5 2.94444 17.5 3.125V7.5C17.5 7.68056 17.441 7.82986 17.3229 7.94792C17.2049 8.06597 17.0556 8.125 16.875 8.125H11.25C11.0694 8.125 10.9201 8.06597 10.8021 7.94792C10.684 7.82986 10.625 7.68056 10.625 7.5ZM2.5 10V3.125C2.5 2.94444 2.55903 2.79514 2.67708 2.67708C2.79514 2.55903 2.94444 2.5 3.125 2.5H8.75C8.93056 2.5 9.07986 2.55903 9.19792 2.67708C9.31597 2.79514 9.375 2.94444 9.375 3.125V10C9.375 10.1806 9.31597 10.3299 9.19792 10.4479C9.07986 10.566 8.93056 10.625 8.75 10.625H3.125C2.94444 10.625 2.79514 10.566 2.67708 10.4479C2.55903 10.3299 2.5 10.1806 2.5 10ZM10.625 16.875V10C10.625 9.81944 10.684 9.67014 10.8021 9.55208C10.9201 9.43403 11.0694 9.375 11.25 9.375H16.875C17.0556 9.375 17.2049 9.43403 17.3229 9.55208C17.441 9.67014 17.5 9.81944 17.5 10V16.875C17.5 17.0556 17.441 17.2049 17.3229 17.3229C17.2049 17.441 17.0556 17.5 16.875 17.5H11.25C11.0694 17.5 10.9201 17.441 10.8021 17.3229C10.684 17.2049 10.625 17.0556 10.625 16.875ZM2.5 16.875V12.5C2.5 12.3194 2.55903 12.1701 2.67708 12.0521C2.79514 11.934 2.94444 11.875 3.125 11.875H8.75C8.93056 11.875 9.07986 11.934 9.19792 12.0521C9.31597 12.1701 9.375 12.3194 9.375 12.5V16.875C9.375 17.0556 9.31597 17.2049 9.19792 17.3229C9.07986 17.441 8.93056 17.5 8.75 17.5H3.125C2.94444 17.5 2.79514 17.441 2.67708 17.3229C2.55903 17.2049 2.5 17.0556 2.5 16.875Z" fill="white"/>
    </svg>
    