<svg width="20" height="20" viewBox="0 0 20 20" fill="none" xmlns="http://www.w3.org/2000/svg">
    <path d="M2.5 18.1667V1.79166C2.5 1.79166 2.51736 1.79166 2.55208 1.79166C2.58681 1.79166 2.63889 1.82638 2.70833 1.89582L3.54167 2.72916C3.61111 2.7986 3.68056 2.83332 3.75 2.83332C3.81944 2.83332 3.88889 2.7986 3.95833 2.72916L4.79167 1.89582C4.86111 1.82638 4.93056 1.79166 5 1.79166C5.06944 1.79166 5.13889 1.82638 5.20833 1.89582L6.04167 2.72916C6.11111 2.7986 6.18056 2.83332 6.25 2.83332C6.31944 2.83332 6.38889 2.7986 6.45833 2.72916L7.29167 1.89582C7.36111 1.82638 7.43056 1.79166 7.5 1.79166C7.56944 1.79166 7.63889 1.82638 7.70833 1.89582L8.54167 2.72916C8.61111 2.7986 8.68056 2.83332 8.75 2.83332C8.81944 2.83332 8.88889 2.7986 8.95833 2.72916L9.79167 1.89582C9.86111 1.82638 9.93056 1.79166 10 1.79166C10.0694 1.79166 10.1389 1.82638 10.2083 1.89582L11.0417 2.72916C11.1111 2.7986 11.1806 2.83332 11.25 2.83332C11.3194 2.83332 11.3889 2.7986 11.4583 2.72916L12.2917 1.89582C12.3611 1.82638 12.4306 1.79166 12.5 1.79166C12.5694 1.79166 12.6389 1.82638 12.7083 1.89582L13.5417 2.72916C13.6111 2.7986 13.6806 2.83332 13.75 2.83332C13.8194 2.83332 13.8889 2.7986 13.9583 2.72916L14.7917 1.89582C14.8611 1.82638 14.9306 1.79166 15 1.79166C15.0694 1.79166 15.1389 1.82638 15.2083 1.89582L16.0417 2.72916C16.1111 2.7986 16.1806 2.83332 16.25 2.83332C16.3194 2.83332 16.3889 2.7986 16.4583 2.72916L17.2917 1.89582C17.3611 1.82638 17.4132 1.79166 17.4479 1.79166C17.4826 1.79166 17.5 1.79166 17.5 1.79166V18.1667C17.5 18.1667 17.4826 18.1736 17.4479 18.1875C17.4132 18.2014 17.3611 18.1736 17.2917 18.1042L16.4583 17.2708C16.3889 17.2014 16.3194 17.1667 16.25 17.1667C16.1806 17.1667 16.1111 17.2014 16.0417 17.2708L15.2083 18.1042C15.1389 18.1736 15.0694 18.2083 15 18.2083C14.9306 18.2083 14.8611 18.1736 14.7917 18.1042L13.9583 17.2708C13.8889 17.2014 13.8194 17.1667 13.75 17.1667C13.6806 17.1667 13.6111 17.2014 13.5417 17.2708L12.7083 18.1042C12.6389 18.1736 12.5694 18.2083 12.5 18.2083C12.4306 18.2083 12.3611 18.1736 12.2917 18.1042L11.4583 17.2708C11.3889 17.2014 11.3194 17.1667 11.25 17.1667C11.1806 17.1667 11.1111 17.2014 11.0417 17.2708L10.2083 18.1042C10.1389 18.1736 10.0694 18.2083 10 18.2083C9.93056 18.2083 9.86111 18.1736 9.79167 18.1042L8.95833 17.2708C8.88889 17.2014 8.81944 17.1667 8.75 17.1667C8.68056 17.1667 8.61111 17.2014 8.54167 17.2708L7.70833 18.1042C7.63889 18.1736 7.56944 18.2083 7.5 18.2083C7.43056 18.2083 7.36111 18.1736 7.29167 18.1042L6.45833 17.2708C6.38889 17.2014 6.31944 17.1667 6.25 17.1667C6.18056 17.1667 6.11111 17.2014 6.04167 17.2708L5.20833 18.1042C5.13889 18.1736 5.06944 18.2083 5 18.2083C4.93056 18.2083 4.86111 18.1736 4.79167 18.1042L3.95833 17.2708C3.88889 17.2014 3.81944 17.1667 3.75 17.1667C3.68056 17.1667 3.61111 17.2014 3.54167 17.2708L2.70833 18.1042C2.63889 18.1736 2.58681 18.2014 2.55208 18.1875C2.51736 18.1736 2.5 18.1667 2.5 18.1667ZM5.5625 13.8333H14.5208C14.7014 13.8333 14.8507 13.7743 14.9687 13.6562C15.0868 13.5382 15.1458 13.3889 15.1458 13.2083C15.1458 13.0278 15.0868 12.8785 14.9687 12.7604C14.8507 12.6424 14.7014 12.5833 14.5208 12.5833H5.5625C5.38194 12.5833 5.23264 12.6424 5.11458 12.7604C4.99653 12.8785 4.9375 13.0278 4.9375 13.2083C4.9375 13.3889 4.99653 13.5382 5.11458 13.6562C5.23264 13.7743 5.38194 13.8333 5.5625 13.8333ZM5.5625 10.625H14.5208C14.7014 10.625 14.8507 10.566 14.9687 10.4479C15.0868 10.3299 15.1458 10.1805 15.1458 9.99999C15.1458 9.81944 15.0868 9.67013 14.9687 9.55207C14.8507 9.43402 14.7014 9.37499 14.5208 9.37499H5.5625C5.38194 9.37499 5.23264 9.43402 5.11458 9.55207C4.99653 9.67013 4.9375 9.81944 4.9375 9.99999C4.9375 10.1805 4.99653 10.3299 5.11458 10.4479C5.23264 10.566 5.38194 10.625 5.5625 10.625ZM5.5625 7.39582H14.5208C14.7014 7.39582 14.8507 7.3368 14.9687 7.21874C15.0868 7.10068 15.1458 6.95138 15.1458 6.77082C15.1458 6.59027 15.0868 6.44096 14.9687 6.32291C14.8507 6.20485 14.7014 6.14582 14.5208 6.14582H5.5625C5.38194 6.14582 5.23264 6.20485 5.11458 6.32291C4.99653 6.44096 4.9375 6.59027 4.9375 6.77082C4.9375 6.95138 4.99653 7.10068 5.11458 7.21874C5.23264 7.3368 5.38194 7.39582 5.5625 7.39582Z" fill="#384764"/>
    </svg>
    