<svg width="20" height="20" viewBox="0 0 20 20" fill="none" xmlns="http://www.w3.org/2000/svg">
    <path d="M14.25 10.375H6.75V12.7188H14.25V10.375ZM17.7266 4.84521L13.9023 1.25635C13.7266 1.09155 13.4883 1 13.2383 1H13V5.6875H18V5.46411C18 5.2334 17.9023 5.01001 17.7266 4.84521ZM11.75 5.98047V1H3.9375C3.41797 1 3 1.39185 3 1.87891V18.8711C3 19.3582 3.41797 19.75 3.9375 19.75H17.0625C17.582 19.75 18 19.3582 18 18.8711V6.85938H12.6875C12.1719 6.85938 11.75 6.46387 11.75 5.98047ZM5.5 3.63672C5.5 3.47485 5.63984 3.34375 5.8125 3.34375H8.9375C9.11016 3.34375 9.25 3.47485 9.25 3.63672V4.22266C9.25 4.38452 9.11016 4.51562 8.9375 4.51562H5.8125C5.63984 4.51562 5.5 4.38452 5.5 4.22266V3.63672ZM5.5 5.98047C5.5 5.8186 5.63984 5.6875 5.8125 5.6875H8.9375C9.11016 5.6875 9.25 5.8186 9.25 5.98047V6.56641C9.25 6.72827 9.11016 6.85938 8.9375 6.85938H5.8125C5.63984 6.85938 5.5 6.72827 5.5 6.56641V5.98047ZM15.5 17.1133C15.5 17.2751 15.3602 17.4062 15.1875 17.4062H12.0625C11.8898 17.4062 11.75 17.2751 11.75 17.1133V16.5273C11.75 16.3655 11.8898 16.2344 12.0625 16.2344H15.1875C15.3602 16.2344 15.5 16.3655 15.5 16.5273V17.1133ZM15.5 9.78906V13.3047C15.5 13.6284 15.2203 13.8906 14.875 13.8906H6.125C5.77969 13.8906 5.5 13.6284 5.5 13.3047V9.78906C5.5 9.46533 5.77969 9.20312 6.125 9.20312H14.875C15.2203 9.20312 15.5 9.46533 15.5 9.78906Z" fill="#384764"/>
    </svg>
    