<svg width="20" height="20" viewBox="0 0 20 20" fill="none" xmlns="http://www.w3.org/2000/svg">
    <path d="M12.792 11.0832L15.167 8.70817C15.292 8.58317 15.3545 8.43734 15.3545 8.27067C15.3545 8.104 15.292 7.95817 15.167 7.83317L12.792 5.43734C12.6809 5.32623 12.5455 5.29845 12.3857 5.354C12.226 5.40956 12.0628 5.43734 11.8962 5.43734C11.7712 5.56234 11.7087 5.71511 11.7087 5.89567C11.7087 6.07623 11.7712 6.229 11.8962 6.354L13.1878 7.64567H9.77116C9.60449 7.64567 9.46213 7.7047 9.34408 7.82275C9.22602 7.94081 9.16699 8.09012 9.16699 8.27067C9.16699 8.45123 9.22602 8.60053 9.34408 8.71859C9.46213 8.83664 9.61144 8.89567 9.79199 8.89567H13.1878L11.8753 10.2082C11.7503 10.3332 11.6878 10.479 11.6878 10.6457C11.6878 10.8123 11.7573 10.9582 11.8962 11.0832C12.0073 11.2082 12.1531 11.2707 12.3337 11.2707C12.5142 11.2707 12.667 11.2082 12.792 11.0832ZM7.22949 14.729C7.35449 14.854 7.50033 14.9165 7.66699 14.9165C7.83366 14.9165 7.98644 14.8471 8.12533 14.7082C8.23644 14.5971 8.29199 14.4512 8.29199 14.2707C8.29199 14.0901 8.23644 13.9373 8.12533 13.8123L6.81283 12.5207H10.2295C10.3962 12.5207 10.5385 12.4616 10.6566 12.3436C10.7746 12.2255 10.8337 12.0762 10.8337 11.8957C10.8337 11.7151 10.7746 11.5658 10.6566 11.4478C10.5385 11.3297 10.3892 11.2707 10.2087 11.2707H6.81283L8.12533 9.95817C8.25033 9.83317 8.31283 9.68734 8.31283 9.52067C8.31283 9.354 8.25033 9.20817 8.12533 9.08317C8.00033 8.95817 7.84755 8.89567 7.66699 8.89567C7.48644 8.89567 7.3406 8.95817 7.22949 9.08317L4.83366 11.4582C4.70866 11.5832 4.64616 11.729 4.64616 11.8957C4.64616 12.0623 4.70866 12.2082 4.83366 12.3332L7.22949 14.729ZM10.0003 18.3332C8.86144 18.3332 7.78505 18.1144 6.77116 17.6769C5.75727 17.2394 4.87185 16.6422 4.11491 15.8853C3.35796 15.1283 2.76074 14.2429 2.32324 13.229C1.88574 12.2151 1.66699 11.1387 1.66699 9.99984C1.66699 8.86095 1.88574 7.78456 2.32324 6.77067C2.76074 5.75678 3.35796 4.87137 4.11491 4.11442C4.87185 3.35748 5.75727 2.76025 6.77116 2.32275C7.78505 1.88525 8.86144 1.6665 10.0003 1.6665C11.1392 1.6665 12.2156 1.88525 13.2295 2.32275C14.2434 2.76025 15.1288 3.35748 15.8857 4.11442C16.6427 4.87137 17.2399 5.75678 17.6774 6.77067C18.1149 7.78456 18.3337 8.86095 18.3337 9.99984C18.3337 11.1387 18.1149 12.2151 17.6774 13.229C17.2399 14.2429 16.6427 15.1283 15.8857 15.8853C15.1288 16.6422 14.2434 17.2394 13.2295 17.6769C12.2156 18.1144 11.1392 18.3332 10.0003 18.3332Z" fill="#384764"/>
    </svg>
    