<svg width="20" height="20" viewBox="0 0 20 20" fill="none" xmlns="http://www.w3.org/2000/svg">
    <path d="M6.66634 16.6667C5.04134 16.6667 3.66287 16.1007 2.53092 14.9687C1.39898 13.8368 0.833008 12.4583 0.833008 10.8333C0.833008 9.125 1.44065 7.73264 2.65592 6.65625C3.8712 5.57986 5.22884 5.09028 6.72884 5.1875L5.37467 3.83333C5.24967 3.70833 5.18717 3.55903 5.18717 3.38542C5.18717 3.21181 5.24967 3.0625 5.37467 2.9375C5.49967 2.8125 5.64898 2.75 5.82259 2.75C5.9962 2.75 6.14551 2.8125 6.27051 2.9375L8.72884 5.39583C8.79829 5.46528 8.8469 5.53472 8.87467 5.60417C8.90245 5.67361 8.91634 5.75 8.91634 5.83333C8.91634 5.91667 8.90245 5.99306 8.87467 6.0625C8.8469 6.13194 8.79829 6.20139 8.72884 6.27083L6.27051 8.72917C6.14551 8.85417 5.99967 8.91319 5.83301 8.90625C5.66634 8.89931 5.52051 8.83333 5.39551 8.70833C5.27051 8.58333 5.20801 8.43403 5.20801 8.26042C5.20801 8.08681 5.27051 7.9375 5.39551 7.8125L6.79134 6.41667C5.4719 6.38889 4.35731 6.79167 3.44759 7.625C2.53787 8.45833 2.08301 9.52778 2.08301 10.8333C2.08301 12.0972 2.53092 13.1771 3.42676 14.0729C4.32259 14.9688 5.40245 15.4167 6.66634 15.4167H8.54134C8.7219 15.4167 8.8712 15.4757 8.98926 15.5937C9.10731 15.7118 9.16634 15.8611 9.16634 16.0417C9.16634 16.2222 9.10731 16.3715 8.98926 16.4896C8.8712 16.6076 8.7219 16.6667 8.54134 16.6667H6.66634ZM12.083 16.6667C11.7358 16.6667 11.4406 16.5451 11.1976 16.3021C10.9545 16.059 10.833 15.7639 10.833 15.4167V12.0833C10.833 11.7361 10.9545 11.441 11.1976 11.1979C11.4406 10.9549 11.7358 10.8333 12.083 10.8333H17.083C17.4302 10.8333 17.7254 10.9549 17.9684 11.1979C18.2115 11.441 18.333 11.7361 18.333 12.0833V15.4167C18.333 15.7639 18.2115 16.059 17.9684 16.3021C17.7254 16.5451 17.4302 16.6667 17.083 16.6667H12.083ZM12.083 15.4167H17.083V12.0833H12.083V15.4167ZM12.083 9.16667C11.7358 9.16667 11.4406 9.04514 11.1976 8.80208C10.9545 8.55903 10.833 8.26389 10.833 7.91667V4.58333C10.833 4.23611 10.9545 3.94097 11.1976 3.69792C11.4406 3.45486 11.7358 3.33333 12.083 3.33333H17.083C17.4302 3.33333 17.7254 3.45486 17.9684 3.69792C18.2115 3.94097 18.333 4.23611 18.333 4.58333V7.91667C18.333 8.26389 18.2115 8.55903 17.9684 8.80208C17.7254 9.04514 17.4302 9.16667 17.083 9.16667H12.083Z" fill="#384764"/>
    </svg>
    